<svg width="183" height="29" viewBox="0 0 183 29" fill="none" xmlns="http://www.w3.org/2000/svg">
<g opacity="0.3">
<path d="M47.582 6.25V9.32031H49.9492V10.9961H47.582V18.8594C47.582 19.3672 47.6875 19.75 47.8984 20.0078C48.1094 20.2578 48.4688 20.3828 48.9766 20.3828C49.2266 20.3828 49.5703 20.3359 50.0078 20.2422V22C49.4375 22.1562 48.8828 22.2344 48.3438 22.2344C47.375 22.2344 46.6445 21.9414 46.1523 21.3555C45.6602 20.7695 45.4141 19.9375 45.4141 18.8594V10.9961H43.1055V9.32031H45.4141V6.25H47.582ZM57.7539 22.2344C56.0352 22.2344 54.6367 21.6719 53.5586 20.5469C52.4805 19.4141 51.9414 17.9023 51.9414 16.0117V15.6133C51.9414 14.3555 52.1797 13.2344 52.6562 12.25C53.1406 11.2578 53.8125 10.4844 54.6719 9.92969C55.5391 9.36719 56.4766 9.08594 57.4844 9.08594C59.1328 9.08594 60.4141 9.62891 61.3281 10.7148C62.2422 11.8008 62.6992 13.3555 62.6992 15.3789V16.2812H54.1094C54.1406 17.5312 54.5039 18.543 55.1992 19.3164C55.9023 20.082 56.793 20.4648 57.8711 20.4648C58.6367 20.4648 59.2852 20.3086 59.8164 19.9961C60.3477 19.6836 60.8125 19.2695 61.2109 18.7539L62.5352 19.7852C61.4727 21.418 59.8789 22.2344 57.7539 22.2344ZM57.4844 10.8672C56.6094 10.8672 55.875 11.1875 55.2812 11.8281C54.6875 12.4609 54.3203 13.3516 54.1797 14.5H60.5312V14.3359C60.4688 13.2344 60.1719 12.3828 59.6406 11.7812C59.1094 11.1719 58.3906 10.8672 57.4844 10.8672ZM67.2695 9.32031L67.3398 10.9141C68.3086 9.69531 69.5742 9.08594 71.1367 9.08594C73.8164 9.08594 75.168 10.5977 75.1914 13.6211V22H73.0234V13.6094C73.0156 12.6953 72.8047 12.0195 72.3906 11.582C71.9844 11.1445 71.3477 10.9258 70.4805 10.9258C69.7773 10.9258 69.1602 11.1133 68.6289 11.4883C68.0977 11.8633 67.6836 12.3555 67.3867 12.9648V22H65.2188V9.32031H67.2695ZM80.5117 9.32031L80.582 10.9141C81.5508 9.69531 82.8164 9.08594 84.3789 9.08594C87.0586 9.08594 88.4102 10.5977 88.4336 13.6211V22H86.2656V13.6094C86.2578 12.6953 86.0469 12.0195 85.6328 11.582C85.2266 11.1445 84.5898 10.9258 83.7227 10.9258C83.0195 10.9258 82.4023 11.1133 81.8711 11.4883C81.3398 11.8633 80.9258 12.3555 80.6289 12.9648V22H78.4609V9.32031H80.5117ZM99.5312 22C99.4062 21.75 99.3047 21.3047 99.2266 20.6641C98.2188 21.7109 97.0156 22.2344 95.6172 22.2344C94.3672 22.2344 93.3398 21.8828 92.5352 21.1797C91.7383 20.4688 91.3398 19.5703 91.3398 18.4844C91.3398 17.1641 91.8398 16.1406 92.8398 15.4141C93.8477 14.6797 95.2617 14.3125 97.082 14.3125H99.1914V13.3164C99.1914 12.5586 98.9648 11.957 98.5117 11.5117C98.0586 11.0586 97.3906 10.832 96.5078 10.832C95.7344 10.832 95.0859 11.0273 94.5625 11.418C94.0391 11.8086 93.7773 12.2812 93.7773 12.8359H91.5977C91.5977 12.2031 91.8203 11.5938 92.2656 11.0078C92.7188 10.4141 93.3281 9.94531 94.0938 9.60156C94.8672 9.25781 95.7148 9.08594 96.6367 9.08594C98.0977 9.08594 99.2422 9.45312 100.07 10.1875C100.898 10.9141 101.328 11.918 101.359 13.1992V19.0352C101.359 20.1992 101.508 21.125 101.805 21.8125V22H99.5312ZM95.9336 20.3477C96.6133 20.3477 97.2578 20.1719 97.8672 19.8203C98.4766 19.4688 98.918 19.0117 99.1914 18.4492V15.8477H97.4922C94.8359 15.8477 93.5078 16.625 93.5078 18.1797C93.5078 18.8594 93.7344 19.3906 94.1875 19.7734C94.6406 20.1562 95.2227 20.3477 95.9336 20.3477ZM104.242 15.5547C104.242 13.5781 104.699 12.0078 105.613 10.8438C106.527 9.67188 107.738 9.08594 109.246 9.08594C110.793 9.08594 112 9.63281 112.867 10.7266L112.973 9.32031H114.953V21.6953C114.953 23.3359 114.465 24.6289 113.488 25.5742C112.52 26.5195 111.215 26.9922 109.574 26.9922C108.66 26.9922 107.766 26.7969 106.891 26.4062C106.016 26.0156 105.348 25.4805 104.887 24.8008L106.012 23.5C106.941 24.6484 108.078 25.2227 109.422 25.2227C110.477 25.2227 111.297 24.9258 111.883 24.332C112.477 23.7383 112.773 22.9023 112.773 21.8242V20.7344C111.906 21.7344 110.723 22.2344 109.223 22.2344C107.738 22.2344 106.535 21.6367 105.613 20.4414C104.699 19.2461 104.242 17.6172 104.242 15.5547ZM106.422 15.8008C106.422 17.2305 106.715 18.3555 107.301 19.1758C107.887 19.9883 108.707 20.3945 109.762 20.3945C111.129 20.3945 112.133 19.7734 112.773 18.5312V12.7422C112.109 11.5312 111.113 10.9258 109.785 10.9258C108.73 10.9258 107.906 11.3359 107.312 12.1562C106.719 12.9766 106.422 14.1914 106.422 15.8008ZM124.363 11.2656C124.035 11.2109 123.68 11.1836 123.297 11.1836C121.875 11.1836 120.91 11.7891 120.402 13V22H118.234V9.32031H120.344L120.379 10.7852C121.09 9.65234 122.098 9.08594 123.402 9.08594C123.824 9.08594 124.145 9.14062 124.363 9.25V11.2656ZM133.727 22C133.602 21.75 133.5 21.3047 133.422 20.6641C132.414 21.7109 131.211 22.2344 129.812 22.2344C128.562 22.2344 127.535 21.8828 126.73 21.1797C125.934 20.4688 125.535 19.5703 125.535 18.4844C125.535 17.1641 126.035 16.1406 127.035 15.4141C128.043 14.6797 129.457 14.3125 131.277 14.3125H133.387V13.3164C133.387 12.5586 133.16 11.957 132.707 11.5117C132.254 11.0586 131.586 10.832 130.703 10.832C129.93 10.832 129.281 11.0273 128.758 11.418C128.234 11.8086 127.973 12.2812 127.973 12.8359H125.793C125.793 12.2031 126.016 11.5938 126.461 11.0078C126.914 10.4141 127.523 9.94531 128.289 9.60156C129.062 9.25781 129.91 9.08594 130.832 9.08594C132.293 9.08594 133.438 9.45312 134.266 10.1875C135.094 10.9141 135.523 11.918 135.555 13.1992V19.0352C135.555 20.1992 135.703 21.125 136 21.8125V22H133.727ZM130.129 20.3477C130.809 20.3477 131.453 20.1719 132.062 19.8203C132.672 19.4688 133.113 19.0117 133.387 18.4492V15.8477H131.688C129.031 15.8477 127.703 16.625 127.703 18.1797C127.703 18.8594 127.93 19.3906 128.383 19.7734C128.836 20.1562 129.418 20.3477 130.129 20.3477ZM149.664 15.8008C149.664 17.7305 149.223 19.2852 148.34 20.4648C147.457 21.6445 146.262 22.2344 144.754 22.2344C143.215 22.2344 142.004 21.7461 141.121 20.7695V26.875H138.953V9.32031H140.934L141.039 10.7266C141.922 9.63281 143.148 9.08594 144.719 9.08594C146.242 9.08594 147.445 9.66016 148.328 10.8086C149.219 11.957 149.664 13.5547 149.664 15.6016V15.8008ZM147.496 15.5547C147.496 14.125 147.191 12.9961 146.582 12.168C145.973 11.3398 145.137 10.9258 144.074 10.9258C142.762 10.9258 141.777 11.5078 141.121 12.6719V18.7305C141.77 19.8867 142.762 20.4648 144.098 20.4648C145.137 20.4648 145.961 20.0547 146.57 19.2344C147.188 18.4062 147.496 17.1797 147.496 15.5547ZM154.598 10.8555C155.559 9.67578 156.809 9.08594 158.348 9.08594C161.027 9.08594 162.379 10.5977 162.402 13.6211V22H160.234V13.6094C160.227 12.6953 160.016 12.0195 159.602 11.582C159.195 11.1445 158.559 10.9258 157.691 10.9258C156.988 10.9258 156.371 11.1133 155.84 11.4883C155.309 11.8633 154.895 12.3555 154.598 12.9648V22H152.43V4H154.598V10.8555Z" fill="black"/>
<path d="M25.9516 18.648C25.038 20.225 23.9417 21.3252 22.3337 21.7653C19.2274 22.6455 15.9384 21.6553 14.4766 18.1346C13.1245 14.8706 13.1245 11.4966 14.4766 8.2326C15.4633 5.84879 17.2906 4.49185 19.8852 4.34516C22.4799 4.19846 24.4899 5.22533 25.8055 7.49912C25.842 7.57246 25.9151 7.64581 26.0613 7.86586C26.0613 6.98568 26.0978 6.28887 26.0613 5.5554C26.0247 4.96861 26.2074 4.74857 26.8287 4.74857C27.8154 4.78524 28.8021 4.78524 29.8254 4.74857C30.3004 4.74857 30.4466 4.96861 30.4832 5.4087C30.4832 5.88546 30.337 6.14218 29.8254 6.14218C29.131 6.14218 28.4001 6.14218 27.6692 6.14218C27.6692 6.47225 27.6692 6.69229 27.6692 6.94901C27.6692 11.7166 27.6692 16.4842 27.6692 21.2519C27.6692 22.9389 27.3403 24.5158 26.2805 25.9094C25.1477 27.4131 23.6128 28.1466 21.8221 28.3299C19.3371 28.5867 17.0713 27.9999 15.2075 26.2395C14.6228 25.6894 14.6959 25.1026 15.4633 24.8092C15.6461 24.7359 16.0115 24.9559 16.1942 25.1393C17.9484 26.753 19.9949 27.2297 22.2972 26.7163C24.3071 26.2762 25.7689 24.5892 25.9516 22.4254C26.0247 21.2519 25.9516 20.0049 25.9516 18.648ZM26.1344 13.1102C25.9151 11.9367 25.8055 10.7264 25.44 9.58953C24.7091 7.20572 22.955 5.84879 20.6527 5.77544C18.46 5.70209 16.6328 7.02235 15.7923 9.40616C14.9152 12.01 14.9152 14.6505 15.9384 17.2177C16.7424 19.2715 18.2407 20.4817 20.5065 20.5184C22.8088 20.555 24.3071 19.3081 25.1842 17.2911C25.842 16.0075 25.9882 14.5772 26.1344 13.1102Z" fill="black"/>
<path d="M0 4.96864C0.255812 4.27183 0.803981 4.12514 1.46178 4.23516C2.11959 4.34518 2.48504 4.08846 2.66776 3.42833C2.88703 2.54816 3.25247 1.74133 3.58138 0.861154C3.7641 0.311045 4.16608 0.0176519 4.7508 0.0176519C6.65111 -0.0556961 6.68767 0.0176528 6.68767 1.88803C6.68767 2.65818 6.68767 3.39166 6.68767 4.19848C7.71091 4.19848 8.69761 4.19848 9.68431 4.19848C10.4883 4.19848 10.7441 4.4552 10.7807 5.22536C10.8172 5.70212 10.7807 6.1422 10.7807 6.61897C10.7441 7.20575 10.4518 7.49914 9.86704 7.49914C8.84379 7.49914 7.82055 7.49914 6.72421 7.49914C6.72421 7.75586 6.68767 7.9759 6.68767 8.15928C6.68767 10.6898 6.68767 13.2203 6.72421 15.7508C6.72421 16.1542 6.76075 16.5943 6.87039 16.9977C7.08966 18.0246 7.93018 18.648 9.09961 18.7214C9.5016 18.758 9.94013 18.7214 10.3421 18.758C10.8172 18.7947 11.1096 19.0514 11.1461 19.5649C11.1461 20.1517 11.1461 20.7018 11.1461 21.2886C11.1461 21.7286 10.8903 22.0587 10.4518 22.0587C8.91688 22.022 7.30893 22.0954 5.8106 21.802C3.7641 21.3986 2.48503 19.6382 2.41194 17.5478C2.33886 14.5039 2.33886 11.4233 2.30232 8.37932C2.30232 8.1226 2.30232 7.90255 2.30232 7.57249C1.79069 7.57249 1.3887 7.57249 0.986708 7.57249C0.438539 7.57249 0.146185 7.2791 0.10964 6.72899C0.10964 6.36225 0.0365446 6.03218 0 5.66544C0 5.40873 0 5.18868 0 4.96864Z" fill="black"/>
</g>
</svg>
